<svg width="335" height="293" viewBox="0 0 335 293" fill="none" xmlns="http://www.w3.org/2000/svg">
<path d="M327.877 137.788C326.58 133.639 323.26 130.442 319.75 128.044C316.546 125.836 312.883 124.351 309.373 122.753C307.732 121.991 306.092 121.23 304.527 120.355C303.803 119.936 303.078 119.479 302.391 119.022C302.315 118.946 302.238 118.908 302.162 118.87C302.124 118.832 302.048 118.756 301.933 118.68C301.437 118.261 300.979 117.804 300.56 117.348C297.927 114.645 296.21 110.534 294.379 107.032C292.166 102.807 289.495 99.153 285.68 96.2982C279.347 91.5402 270.419 91.0073 263.094 93.3292C255.425 95.7653 248.863 101.018 243.445 106.804C237.989 112.628 233.373 119.403 229.901 126.597C228.298 129.909 226.887 133.411 225.971 136.989C225.437 139.082 226.391 140.681 227.84 141.518C228.031 141.899 228.26 142.241 228.565 142.584C228.985 143.003 229.366 143.459 229.748 143.916C229.786 143.954 229.901 144.107 230.015 144.259C230.168 144.449 230.32 144.639 230.473 144.868C231.35 146.086 232.19 147.38 232.991 148.674C234.708 151.453 236.272 154.346 237.836 157.201C241.308 163.481 244.818 169.686 249.244 175.357C253.288 180.496 258.553 185.025 265.001 186.662C268.511 187.576 272.174 187.423 275.722 186.624C280.3 185.596 283.62 182.742 286.405 179.125C287.511 177.679 288.541 176.118 289.648 174.634C289.915 174.291 290.373 173.72 290.983 173.111C291.823 172.236 291.784 172.274 292.815 171.627C297.011 169.153 302.124 170.942 306.702 169.571C310.899 168.315 314.905 165.194 318.224 162.415C321.696 159.484 324.787 155.792 326.732 151.643C328.678 147.304 329.327 142.432 327.877 137.788Z" fill="#AEE5F7"/>
<path d="M120.631 98.544C115.976 93.6718 109.643 90.5125 103.348 88.3047C98.9984 86.7822 94.3438 85.7164 89.651 85.3738C87.6671 77.4565 83.0887 69.0824 76.4883 64.2483C73.2835 61.8883 68.8577 60.5561 64.8899 60.8606C61.0364 61.1651 58.175 63.1064 55.9239 66.1515C54.2071 68.4353 53.3296 71.2901 52.185 73.8785C50.7733 77.0378 49.7814 78.9791 47.2251 80.7681C43.7151 83.2042 39.2893 83.6229 35.1307 84.0035C30.2853 84.4222 25.3636 84.6887 20.7852 86.4015C15.9017 88.1905 11.3234 91.5402 8.23298 95.7272C5.48598 99.4575 4.57032 103.721 5.18076 108.288C6.51611 117.957 16.8174 122.334 23.0744 127.739C24.2953 128.767 25.4017 129.909 26.47 131.089C27.8817 132.649 28.3013 133.296 29.4841 134.895C32.3074 138.778 34.7492 143.041 38.2592 146.352C45.5082 153.204 55.6569 154.841 65.1188 152.443C70.0786 151.186 74.3136 148.75 78.1289 145.477C81.1811 142.85 83.9281 139.615 87.0948 137.483C90.643 135.085 93.7334 134.705 97.8157 134.933C101.631 135.162 105.37 135.999 109.223 135.809C118.762 135.276 125.133 127.244 126.888 118.337C128.376 110.915 125.744 103.911 120.631 98.544Z" fill="#AEE5F7"/>
<path d="M294.112 126.102C291.632 123.4 287.931 122.106 284.345 123.019C279.881 124.161 278.049 129.224 277.63 133.258C277.325 136.075 281.712 136.874 282.017 134.02C282.323 131.051 283.276 127.967 285.909 127.168C286.405 127.016 287.74 127.168 288.389 127.396C289.457 127.815 290.373 128.462 291.021 129.224C296.821 135.847 288.007 143.117 282.246 146.01C279.728 147.304 281.216 151.491 283.811 150.197C289.266 147.418 294.951 143.536 296.821 137.407C298.003 133.411 296.935 129.147 294.112 126.102Z" fill="white"/>
<path d="M283.925 156.706C283.658 156.668 283.391 156.63 283.124 156.553C281.941 156.325 280.758 157.162 280.529 158.342C280.3 159.522 281.14 160.702 282.323 160.931C282.59 160.969 282.857 161.007 283.124 161.083C284.306 161.311 285.489 160.474 285.718 159.294C285.947 158.114 285.146 156.934 283.925 156.706Z" fill="white"/>
<path d="M76.2212 98.0111H66.5686V88.3428H56.2673V98.0111H46.5765V108.288H56.2673V117.919H66.5686V108.288H76.2212V98.0111Z" fill="white"/>
<path d="M33.8717 124.351H28.225V118.718H22.2351V124.351H16.5884V130.327H22.2351V135.961H28.225V130.327H33.8717V124.351Z" stroke="#42BFFF" stroke-width="2" stroke-miterlimit="10"/>
<path d="M45.8135 63.8296H39.0986V57.1303H31.964V63.8296H25.2491V70.9475H31.964V77.6468H39.0986V70.9475H45.8135V63.8296Z" fill="#AEE5F7"/>
<path d="M245.314 98.8484C245.505 100.561 244.284 102.046 242.567 102.236C240.85 102.426 239.362 101.208 239.172 99.4955L238.142 89.8273C237.951 88.1144 239.172 86.6299 240.889 86.4396C242.605 86.2493 244.093 87.4673 244.284 89.1802L245.314 98.8484Z" stroke="#42BFFF" stroke-width="2" stroke-miterlimit="10"/>
<path d="M258.553 103.759C257.752 105.243 255.845 105.814 254.357 105.015C252.869 104.215 252.296 102.312 253.097 100.828L257.752 92.3015C258.553 90.817 260.423 90.246 261.949 91.0453C263.437 91.8447 264.009 93.7098 263.208 95.2324L258.553 103.759Z" stroke="#42BFFF" stroke-width="2" stroke-miterlimit="10"/>
<path d="M264.162 113.884C262.598 114.569 260.766 113.884 260.079 112.361C259.393 110.801 260.079 108.974 261.606 108.288L270.495 104.292C272.059 103.606 273.891 104.292 274.578 105.814C275.264 107.375 274.578 109.202 273.051 109.887L264.162 113.884Z" stroke="#42BFFF" stroke-width="2" stroke-miterlimit="10"/>
<path d="M219.103 254.226C219.103 265.036 210.328 273.791 199.455 273.791H86.5988C75.7634 273.791 66.9501 265.036 66.9501 254.226V26.603C66.9501 15.7928 75.7252 7 86.5988 7H199.455C210.29 7 219.103 15.7547 219.103 26.603V254.226Z" fill="#D7F1FF"/>
<path d="M218.378 30.0668V26.603C218.378 15.7928 209.603 7 198.73 7H85.8739C75.0385 7 66.2252 15.7547 66.2252 26.603V30.1049H218.378V30.0668Z" fill="#5BC8FF"/>
<path d="M191.786 21.6546C191.786 23.3675 189.993 24.7759 187.742 24.7759H103.806C101.593 24.7759 99.7615 23.3675 99.7615 21.6546V15.4502C99.7615 13.7373 101.555 12.3289 103.806 12.3289H187.78C189.993 12.3289 191.824 13.7373 191.824 15.4502V21.6546H191.786Z" fill="#D7F1FF"/>
<path d="M187.856 21.1598C186.864 20.4746 185.872 19.7895 184.918 19.1043C185.872 17.4676 185.414 15.336 183.812 14.2321C182.133 13.0522 179.806 13.4709 178.661 15.1457C177.479 16.8205 177.898 19.1424 179.577 20.2843C181.18 21.3882 183.354 21.0837 184.537 19.5992C185.529 20.2843 186.521 20.9695 187.475 21.6546C187.78 21.883 188.123 21.3882 187.856 21.1598ZM179.882 19.8276C178.471 18.8379 178.127 16.8966 179.119 15.4883C180.111 14.0799 182.057 13.7373 183.469 14.727C184.88 15.7166 185.224 17.6198 184.27 19.0282C184.27 19.0282 184.27 19.0663 184.232 19.0663C183.24 20.4366 181.294 20.8172 179.882 19.8276Z" fill="#5BC8FF"/>
<path d="M192.969 259.174C192.969 261.686 190.908 263.742 188.39 263.742H92.894C90.3759 263.742 88.3156 261.686 88.3156 259.174V250.039C88.3156 247.526 90.3759 245.471 92.894 245.471H188.39C190.908 245.471 192.969 247.526 192.969 250.039V259.174Z" fill="#42C0FF"/>
<path d="M218.798 172.769H66.2633V238.125H218.798V172.769Z" fill="#42C0FF"/>
<path d="M80.6085 207.403C121.546 207.403 162.523 207.403 203.46 207.403C204.681 207.403 204.681 205.5 203.46 205.5C162.523 205.5 121.546 205.5 80.6085 205.5C79.3495 205.5 79.3495 207.403 80.6085 207.403Z" fill="#D7F1FF"/>
<path d="M80.723 191.272C121.661 191.272 162.637 191.272 203.575 191.272C204.796 191.272 204.796 189.368 203.575 189.368C162.637 189.368 121.661 189.368 80.723 189.368C79.5021 189.368 79.5021 191.272 80.723 191.272Z" fill="#D7F1FF"/>
<path d="M80.6085 224.04C121.546 224.04 162.523 224.04 203.46 224.04C204.681 224.04 204.681 222.137 203.46 222.137C162.523 222.137 121.546 222.137 80.6085 222.137C79.3495 222.137 79.3495 224.04 80.6085 224.04Z" fill="#D7F1FF"/>
<path d="M76.6027 58.767C117.541 58.767 158.517 58.767 199.455 58.767C200.676 58.767 200.676 56.8638 199.455 56.8638C158.517 56.8638 117.541 56.8638 76.6027 56.8638C75.3819 56.8638 75.3819 58.767 76.6027 58.767Z" fill="#5BC8FF"/>
<path d="M151.382 45.7111C151.382 47.7665 149.703 49.4414 147.643 49.4414H78.7012C76.6409 49.4414 74.9622 47.7665 74.9622 45.7111V39.4686C74.9622 37.4131 76.6409 35.7383 78.7012 35.7383H147.643C149.703 35.7383 151.382 37.4131 151.382 39.4686V45.7111Z" fill="#42C0FF"/>
<path d="M218.378 67.3315H66.2633V172.769H218.378V67.3315Z" fill="#D5FFF5"/>
<path d="M197.547 138.169C197.967 139.387 197.318 140.757 196.097 141.176L159.356 154.003C158.135 154.422 156.762 153.775 156.342 152.557L135.511 93.215C135.091 91.9969 135.74 90.6266 136.96 90.2079L173.702 77.3804C174.922 76.9617 176.296 77.6088 176.716 78.8268L197.547 138.169Z" fill="#42C0FF"/>
<path d="M155.045 99.5336C156.151 102.693 154.473 106.195 151.306 107.299C148.139 108.402 144.629 106.728 143.523 103.568C142.416 100.409 144.095 96.9072 147.262 95.8033C150.428 94.6995 153.9 96.3743 155.045 99.5336Z" fill="white"/>
<path d="M161.264 117.309C162.37 120.469 160.691 123.971 157.525 125.075C154.358 126.178 150.848 124.504 149.742 121.344C148.635 118.185 150.314 114.683 153.481 113.579C156.685 112.475 160.157 114.15 161.264 117.309Z" fill="white"/>
<path d="M167.673 135.58C168.78 138.74 167.101 142.241 163.934 143.345C160.768 144.449 157.258 142.774 156.151 139.615C155.045 136.456 156.724 132.954 159.89 131.85C163.095 130.746 166.567 132.383 167.673 135.58Z" fill="white"/>
<path d="M175.571 92.3014C176.677 95.4608 174.999 98.9626 171.832 100.066C168.665 101.17 165.155 99.4955 164.049 96.3362C162.942 93.1769 164.621 89.675 167.788 88.5712C170.993 87.4673 174.465 89.1421 175.571 92.3014Z" fill="white"/>
<path d="M181.828 110.077C182.935 113.237 181.256 116.739 178.089 117.842C174.922 118.946 171.412 117.271 170.306 114.112C169.2 110.953 170.878 107.451 174.045 106.347C177.25 105.243 180.722 106.918 181.828 110.077Z" fill="white"/>
<path d="M188.238 128.348C189.344 131.507 187.665 135.009 184.499 136.113C181.332 137.217 177.822 135.542 176.716 132.383C175.609 129.224 177.288 125.722 180.455 124.618C183.659 123.514 187.131 125.151 188.238 128.348Z" fill="white"/>
<path d="M140.432 152.557C140.432 154.879 138.677 156.744 136.503 156.744H94.6109C92.4362 156.744 90.6811 154.879 90.6811 152.557V104.063C90.6811 101.741 92.4362 99.8762 94.6109 99.8762H136.503C138.677 99.8762 140.432 101.741 140.432 104.063V152.557Z" fill="#AEE5F7"/>
<path d="M144.667 102.274C144.667 103.873 142.531 105.205 139.898 105.205H91.2534C88.6209 105.205 86.4843 103.911 86.4843 102.274V94.7375C86.4843 93.1389 88.6209 91.8066 91.2534 91.8066H139.898C142.531 91.8066 144.667 93.1008 144.667 94.7375V102.274Z" fill="#42C0FF"/>
<path d="M140.432 115.711H90.6811V140.072H140.432V115.711Z" fill="#42C0FF"/>
<path d="M98.3117 147.076C98.3117 147.951 97.6249 148.636 96.7474 148.636C95.8699 148.636 95.1832 147.951 95.1832 147.076V110.839C95.1832 109.963 95.8699 109.278 96.7474 109.278C97.6249 109.278 98.3117 109.963 98.3117 110.839V147.076Z" fill="white"/>
<path d="M179.081 144.183C180.645 150.844 175.838 157.658 168.322 159.409L136.197 166.983C128.681 168.772 121.318 164.814 119.754 158.152C118.189 151.491 122.997 144.678 130.513 142.927L162.637 135.352C170.153 133.601 177.517 137.56 179.081 144.183Z" fill="white"/>
<path d="M179.081 144.183C177.517 137.521 170.153 133.601 162.637 135.352L148.673 138.663C145.087 147.228 147.147 158.114 154.93 162.606L168.322 159.446C175.838 157.657 180.645 150.844 179.081 144.183Z" fill="#AEE5F7"/>
<path d="M218.493 254.226C218.493 265.036 209.718 273.791 198.844 273.791H86.0265C75.1911 273.791 66.3778 265.036 66.3778 254.226V26.603C66.3778 15.7928 75.1529 7 86.0265 7H198.882C209.718 7 218.531 15.7547 218.531 26.603V254.226H218.493Z" stroke="#D7F1FF" stroke-width="3" stroke-miterlimit="10"/>
<path d="M291.975 240.675C287.969 227.543 275.569 185.596 259.545 188.756C258.782 188.908 258.21 189.289 257.752 189.821C248.557 182.742 215.822 179.887 207.696 194.694C197.7 212.926 188.047 257.575 188.047 287.836H281.216C281.216 280.071 281.025 272.801 280.644 265.911C282.017 266.673 283.2 266.825 284.078 266.14C289.877 261.839 296.134 254.264 291.975 240.675Z" fill="#D5FFF5"/>
<path d="M273.051 216.961C278.545 232.758 280.644 249.354 280.644 266.026C280.644 266.749 281.788 266.749 281.788 266.026C281.75 249.239 279.652 232.529 274.12 216.657C273.929 215.971 272.822 216.238 273.051 216.961Z" fill="#76E8E8"/>
<path d="M214.105 224.269C212.121 221.034 209.909 217.951 207.886 214.753C206.437 212.431 205.063 210.033 203.461 207.788C203.079 207.559 202.66 207.331 202.24 207.102C195.792 224.993 190.298 251.485 188.581 274.133C189.878 273.41 191.137 272.649 192.32 271.773C192.511 271.659 192.625 271.545 192.702 271.507C192.74 271.469 192.816 271.431 192.892 271.355C193.274 271.05 193.655 270.707 194.037 270.403C194.8 269.756 195.525 269.071 196.25 268.347C197.089 267.51 197.89 266.635 198.653 265.759C198.997 265.378 199.302 264.96 199.645 264.579C199.645 264.579 200.294 263.742 200.294 263.78C201.515 262.143 202.66 260.468 203.766 258.755C209.374 249.924 215.631 235.955 215.631 229.522L214.105 224.269Z" fill="#444444"/>
<path d="M234.784 235.955C234.784 237.858 233.22 239.419 231.312 239.419C229.405 239.419 227.84 237.858 227.84 235.955C227.84 234.052 229.405 232.491 231.312 232.491C233.22 232.491 234.784 234.014 234.784 235.955Z" fill="#76E8E8"/>
<path d="M226.085 212.964C226.085 214.868 224.521 216.428 222.613 216.428C220.706 216.428 219.142 214.868 219.142 212.964C219.142 211.061 220.706 209.5 222.613 209.5C224.521 209.5 226.085 211.061 226.085 212.964Z" fill="#76E8E8"/>
<path d="M245.467 225.525C245.467 227.429 243.903 228.989 241.995 228.989C240.087 228.989 238.523 227.429 238.523 225.525C238.523 223.622 240.087 222.062 241.995 222.062C243.903 222.062 245.467 223.584 245.467 225.525Z" fill="#76E8E8"/>
<path d="M247.832 247.755C247.832 249.658 246.268 251.219 244.361 251.219C242.453 251.219 240.889 249.658 240.889 247.755C240.889 245.852 242.453 244.291 244.361 244.291C246.268 244.291 247.832 245.852 247.832 247.755Z" fill="#76E8E8"/>
<path d="M219.103 250.419C219.103 252.323 217.539 253.883 215.631 253.883C213.724 253.883 212.16 252.323 212.16 250.419C212.16 248.516 213.724 246.956 215.631 246.956C217.539 246.956 219.103 248.516 219.103 250.419Z" fill="#76E8E8"/>
<path d="M233.029 264.503C233.029 266.406 231.465 267.967 229.557 267.967C227.65 267.967 226.085 266.406 226.085 264.503C226.085 262.6 227.65 261.039 229.557 261.039C231.465 261.039 233.029 262.6 233.029 264.503Z" fill="#76E8E8"/>
<path d="M207.772 264.503C207.772 266.406 206.208 267.967 204.3 267.967C202.392 267.967 200.828 266.406 200.828 264.503C200.828 262.6 202.392 261.039 204.3 261.039C206.208 261.039 207.772 262.6 207.772 264.503Z" fill="#76E8E8"/>
<path d="M219.103 279.767C219.103 281.67 217.539 283.23 215.631 283.23C213.724 283.23 212.16 281.67 212.16 279.767C212.16 277.863 213.724 276.303 215.631 276.303C217.539 276.303 219.103 277.863 219.103 279.767Z" fill="#76E8E8"/>
<path d="M192.778 281.67C192.778 283.573 191.214 285.134 189.306 285.134C187.398 285.134 185.834 283.573 185.834 281.67C185.834 279.767 187.398 278.206 189.306 278.206C191.214 278.206 192.778 279.767 192.778 281.67Z" fill="#76E8E8"/>
<path d="M248.977 281.67C248.977 283.573 247.413 285.134 245.505 285.134C243.597 285.134 242.033 283.573 242.033 281.67C242.033 279.767 243.597 278.206 245.505 278.206C247.413 278.206 248.977 279.767 248.977 281.67Z" fill="#76E8E8"/>
<path d="M261.11 264.503C261.11 266.406 259.545 267.967 257.638 267.967C255.73 267.967 254.166 266.406 254.166 264.503C254.166 262.6 255.73 261.039 257.638 261.039C259.545 261.039 261.11 262.6 261.11 264.503Z" fill="#76E8E8"/>
<path d="M263.17 233.976C263.17 235.879 261.606 237.439 259.698 237.439C257.79 237.439 256.226 235.879 256.226 233.976C256.226 232.072 257.79 230.512 259.698 230.512C261.606 230.512 263.17 232.072 263.17 233.976Z" fill="#76E8E8"/>
<path d="M276.333 248.935C276.333 250.838 274.768 252.399 272.861 252.399C270.953 252.399 269.389 250.838 269.389 248.935C269.389 247.032 270.953 245.471 272.861 245.471C274.768 245.471 276.333 247.032 276.333 248.935Z" fill="#76E8E8"/>
<path d="M276.638 281.67C276.638 283.573 275.073 285.134 273.166 285.134C271.258 285.134 269.694 283.573 269.694 281.67C269.694 279.767 271.258 278.206 273.166 278.206C275.073 278.206 276.638 279.767 276.638 281.67Z" fill="#76E8E8"/>
<path d="M272.822 217.266C272.822 219.169 271.258 220.729 269.351 220.729C267.443 220.729 265.879 219.169 265.879 217.266C265.879 215.362 267.443 213.802 269.351 213.802C271.258 213.802 272.822 215.362 272.822 217.266Z" fill="#76E8E8"/>
<path d="M287.435 230.512C287.435 232.415 285.871 233.976 283.963 233.976C282.055 233.976 280.491 232.415 280.491 230.512C280.491 228.609 282.055 227.048 283.963 227.048C285.871 227.01 287.435 228.571 287.435 230.512Z" fill="#76E8E8"/>
<path d="M288.198 257.537C288.198 259.44 286.634 261.001 284.726 261.001C282.819 261.001 281.254 259.44 281.254 257.537C281.254 255.634 282.819 254.073 284.726 254.073C286.634 254.073 288.198 255.634 288.198 257.537Z" fill="#76E8E8"/>
<path d="M188.696 171.779C188.696 170.142 185.949 166.26 184.957 162.72C182.629 154.308 180.531 144.183 178.89 144.183C176.563 144.183 175.037 145.325 175.495 147.989C176.563 154.27 177.097 159.979 177.326 163.671C170.306 165.803 161.683 170.713 161.683 174.101C161.683 178.516 167.597 188.565 171.489 190.621C177.402 193.78 188.2 191.154 189.039 185.558C189.382 183.312 189.535 177.146 188.696 171.779Z" fill="#F9D6DF"/>
<path d="M176.105 189.174C174.503 189.669 172.9 190.126 171.298 190.583C171.336 190.621 171.412 190.659 171.451 190.697C177.364 193.856 188.161 191.23 189.001 185.634C189.001 185.596 189.001 185.52 189.039 185.482C188.734 185.558 188.429 185.634 188.123 185.71C184.155 186.89 180.149 188.185 176.105 189.174Z" fill="#444444"/>
<path d="M176.258 164.166C176.792 165.613 177.402 167.097 177.708 168.582C177.86 169.305 178.967 169 178.814 168.277C178.471 166.755 177.898 165.308 177.364 163.862C177.097 163.177 175.991 163.443 176.258 164.166Z" fill="#EAB6C3"/>
<path d="M169.963 167.097C170.611 168.353 171.298 169.686 171.756 171.018C171.985 171.703 173.091 171.398 172.862 170.713C172.366 169.267 171.679 167.858 170.955 166.526C170.611 165.879 169.619 166.45 169.963 167.097Z" fill="#EAB6C3"/>
<path d="M164.049 170.751C164.583 172.236 165.499 173.34 166.491 174.558C166.949 175.129 167.75 174.329 167.292 173.758C166.453 172.731 165.613 171.741 165.155 170.447C164.926 169.762 163.82 170.066 164.049 170.751Z" fill="#EAB6C3"/>
<path d="M213.762 191.23C207.925 193.019 201.21 198.919 195.411 206.532C194.19 196.026 189.039 185.596 189.039 185.596C181.904 195.493 171.489 190.659 171.489 190.659C164.011 220.349 171.985 245.471 182.515 251.637C182.515 251.637 189.039 255.977 198.692 253.084C203.957 251.523 220.057 235.308 220.057 226.705C220.057 218.065 219.027 189.631 213.762 191.23Z" fill="#D5FFF5"/>
<path d="M181.714 199.452C184.308 198.881 186.941 197.625 188.848 196.102C189.993 195.15 191.099 194.161 192.129 193.095C190.565 188.641 189.039 185.596 189.039 185.596C181.904 195.493 171.489 190.659 171.489 190.659C170.878 193.095 170.382 195.493 169.963 197.853C173.816 199.375 177.86 200.289 181.714 199.452Z" fill="white"/>
<path d="M195.22 204.857C190.069 210.338 184.728 217.951 185.147 225.83C185.186 226.553 186.33 226.553 186.292 225.83C185.91 218.293 191.099 210.947 196.059 205.694C196.555 205.123 195.754 204.324 195.22 204.857Z" fill="#42C0FF"/>
<path d="M178.967 212.964C178.967 214.868 177.402 216.428 175.495 216.428C173.587 216.428 172.023 214.868 172.023 212.964C172.023 211.061 173.587 209.501 175.495 209.501C177.402 209.501 178.967 211.061 178.967 212.964Z" fill="#76E8E8"/>
<path d="M189.153 235.955C189.153 237.858 187.589 239.419 185.682 239.419C183.774 239.419 182.21 237.858 182.21 235.955C182.21 234.052 183.774 232.491 185.682 232.491C187.627 232.453 189.153 234.014 189.153 235.955Z" fill="#76E8E8"/>
<path d="M202.621 248.935C202.621 250.838 201.057 252.399 199.149 252.399C197.242 252.399 195.678 250.838 195.678 248.935C195.678 247.032 197.242 245.471 199.149 245.471C201.057 245.471 202.621 247.032 202.621 248.935Z" fill="#76E8E8"/>
<path d="M216.814 234.661C216.814 236.564 215.25 238.125 213.342 238.125C211.435 238.125 209.87 236.564 209.87 234.661C209.87 232.758 211.435 231.197 213.342 231.197C215.25 231.197 216.814 232.72 216.814 234.661Z" fill="#76E8E8"/>
<path d="M202.621 220.729C202.621 222.633 201.057 224.193 199.149 224.193C197.242 224.193 195.678 222.633 195.678 220.729C195.678 218.826 197.242 217.266 199.149 217.266C201.057 217.266 202.621 218.826 202.621 220.729Z" fill="#76E8E8"/>
<path d="M230.549 140.338C232.838 143.307 232.648 146.999 230.854 149.55C229.138 151.948 223.949 151.796 223.949 151.796C225.933 159.104 214.449 169.609 214.449 169.609C208.039 169.609 202.354 167.364 201.973 153.546C201.935 152.519 199.836 151.605 199.684 150.539C199.493 149.245 203.308 147.761 203.308 146.39C203.308 134.819 205.864 129.452 205.864 129.452C205.864 129.452 209.451 134.02 213.037 136.494C217.806 139.843 223.148 140.605 223.148 140.605C223.148 140.605 228.222 137.331 230.549 140.338Z" fill="#F9D6DF"/>
<path d="M208.611 145.363C209.201 145.363 209.68 144.255 209.68 142.889C209.68 141.522 209.201 140.414 208.611 140.414C208.021 140.414 207.543 141.522 207.543 142.889C207.543 144.255 208.021 145.363 208.611 145.363Z" fill="#444444"/>
<path d="M214.334 153.166C216.336 153.166 217.959 151.547 217.959 149.55C217.959 147.553 216.336 145.934 214.334 145.934C212.333 145.934 210.71 147.553 210.71 149.55C210.71 151.547 212.333 153.166 214.334 153.166Z" fill="#FFC0C0"/>
<path d="M228.146 141.937C225.818 141.709 224.292 143.802 224.254 145.934C224.254 146.657 225.399 146.657 225.399 145.934C225.437 144.373 226.467 142.927 228.146 143.079C228.871 143.155 228.871 142.013 228.146 141.937Z" fill="#444444"/>
<path d="M215.021 136.418C214.907 137.141 213.533 137.56 211.931 137.331L207.162 136.684C205.559 136.456 204.338 135.694 204.415 134.933C204.529 134.21 205.903 133.791 207.505 134.02L212.274 134.667C213.876 134.895 215.097 135.694 215.021 136.418Z" fill="#444444"/>
<path d="M280.415 179.582C277.325 174.025 272.25 169.571 266.489 166.945C263.399 165.537 260.385 163.976 257.867 161.692C257.638 161.464 257.409 161.273 257.218 161.045C254.776 158.228 253.555 154.955 254.166 151.225C254.624 148.332 256.188 145.591 257.218 142.85C259.316 137.445 259.507 131.584 257.332 126.178C252.945 115.368 242.453 109.202 231.236 107.527C231.16 107.527 231.083 107.527 231.045 107.527C229.557 107.299 228.031 107.184 226.543 107.184C215.364 107.184 207.162 112.628 205.101 120.621C205.063 120.659 205.063 120.697 205.063 120.735C202.278 127.092 203.842 133.753 209.26 138.131C213.075 141.214 218.34 141.67 223.033 140.605C223.148 140.605 223.186 140.643 223.186 140.643C223.186 140.643 223.224 140.605 223.338 140.567C223.376 140.567 223.415 140.567 223.415 140.529C223.567 140.49 223.682 140.414 223.72 140.338C225.093 139.577 228.718 137.978 230.587 140.376C232.877 143.345 232.686 147.037 230.893 149.588C229.557 151.491 225.971 151.795 224.559 151.834C224.445 151.795 224.368 151.795 224.254 151.834C224.063 151.834 223.949 151.834 223.949 151.834C223.949 151.91 223.987 151.986 223.987 152.024L223.949 152.062C222.461 155.107 220.782 158.038 218.455 160.512C216.089 163.024 213.113 164.89 210.252 166.679C204.567 170.218 197.852 172.122 195.182 178.935C193.198 183.998 193.961 189.555 197.166 193.932C198.234 195.417 199.531 196.635 200.981 197.625C201.935 198.538 203.079 199.033 204.376 199.375C206.437 200.175 208.688 200.594 210.939 200.632C212.77 201.05 214.754 201.659 216.891 202.725C228.489 208.473 232.228 220.235 246.535 220.729C259.316 221.186 264.543 213.611 270.571 209.044C271.64 208.244 272.594 207.407 273.395 206.493C273.433 206.455 273.471 206.455 273.509 206.379C276.752 203.22 279.766 199.794 281.598 195.569C283.887 190.278 283.2 184.607 280.415 179.582ZM210.633 137.75C206.704 135.123 204.682 130.974 204.796 126.673C205.025 127.663 205.407 128.615 205.903 129.566C206.322 130.099 209.68 134.21 212.999 136.57C215.479 138.321 218.111 139.349 220.095 139.958C216.776 140.186 213.38 139.577 210.633 137.75ZM214.411 169.609C212.617 170.827 213.38 170.333 212.617 170.827C207.543 174.025 195.067 182.665 198.692 193.742C198.768 193.932 198.806 194.085 198.882 194.275C198.272 193.59 197.7 192.828 197.166 191.991C194.228 187.157 194.686 181.181 197.738 176.537C199.607 173.644 202.812 171.931 205.788 170.371C208.764 168.81 211.664 167.211 214.449 165.308C218.722 162.377 221.736 158.685 224.101 154.232C223.644 161.197 214.411 169.609 214.411 169.609ZM252.296 122.448C251.19 119.708 249.473 117.271 247.298 115.178C252.144 118.756 255.806 123.666 257.332 129.947C258.782 135.923 256.569 141.442 254.357 146.847C254.242 147.152 254.128 147.456 254.013 147.761C256.379 138.93 257.676 132.687 252.296 122.448ZM281.063 193.78C280.262 196.407 278.812 198.766 277.057 200.898C280.491 192.981 278.431 183.503 274.73 176.689C272.746 173.035 269.389 170.333 265.879 167.897C266.604 168.239 267.328 168.582 268.053 168.962C271.067 170.561 273.7 172.807 275.989 175.357C280.567 180.42 283.162 187.043 281.063 193.78Z" fill="#444444"/>
</svg>
